<svg width="49" height="48" viewBox="0 0 49 48" fill="none" xmlns="http://www.w3.org/2000/svg">
<mask id="mask0_998_702" style="mask-type:alpha" maskUnits="userSpaceOnUse" x="0" y="0" width="49" height="48">
<rect x="0.25" width="48" height="48" fill="#D9D9D9"/>
</mask>
<g mask="url(#mask0_998_702)">
<path d="M8.58906 40.9611C7.1124 40.9611 5.8599 40.4469 4.83156 39.4186C3.80323 38.3902 3.28906 37.1377 3.28906 35.6611V12.3391C3.28906 10.8624 3.80323 9.60989 4.83156 8.58156C5.8599 7.55323 7.1124 7.03906 8.58906 7.03906H39.9111C41.3877 7.03906 42.6402 7.55323 43.6686 8.58156C44.6969 9.60989 45.2111 10.8624 45.2111 12.3391V35.6611C45.2111 37.1377 44.6969 38.3902 43.6686 39.4186C42.6402 40.4469 41.3877 40.9611 39.9111 40.9611H8.58906ZM24.2501 27.2156L39.9111 17.2156V12.3391L24.2501 22.3391L8.58906 12.3391V17.2156L24.2501 27.2156Z" fill="#090A12"/>
</g>
</svg>
